<?xml version="1.0" standalone="no"?><!DOCTYPE svg PUBLIC "-//W3C//DTD SVG 1.1//EN" "http://www.w3.org/Graphics/SVG/1.1/DTD/svg11.dtd"><svg t="1539869442645" class="icon" style="" viewBox="0 0 1024 1024" version="1.1" xmlns="http://www.w3.org/2000/svg" p-id="2935" xmlns:xlink="http://www.w3.org/1999/xlink" width="16" height="16"><defs><style type="text/css"></style></defs><path d="M935.3 878.3h-66.9V441.2c0-39.7-32.3-72-72-72H638.6V172.3c0-39.7-32.3-72-72-72H228c-39.7 0-72 32.3-72 72v706H87.3c-13.3 0-24 10.7-24 24s10.7 24 24 24h848c13.3 0 24-10.7 24-24s-10.7-24-24-24zM640.1 405.2h156.3c19.9 0 36 16.1 36 36v437.1H640.1V405.2zM192 172.3c0-19.9 16.1-36 36-36h338.6c19.9 0 36 16.1 36 36v706H192v-706z" p-id="2936" fill="#1296db"></path><path d="M458.6 318.8h-128c-13.3 0-24 10.7-24 24s10.7 24 24 24h128c13.3 0 24-10.7 24-24s-10.7-24-24-24zM458.6 453.5h-128c-13.3 0-24 10.7-24 24s10.7 24 24 24h128c13.3 0 24-10.7 24-24s-10.7-24-24-24zM458.6 588.1h-128c-13.3 0-24 10.7-24 24s10.7 24 24 24h128c13.3 0 24-10.7 24-24 0-13.2-10.7-24-24-24z" p-id="2937" fill="#1296db"></path></svg>