<?xml version="1.0" standalone="no"?><!DOCTYPE svg PUBLIC "-//W3C//DTD SVG 1.1//EN" "http://www.w3.org/Graphics/SVG/1.1/DTD/svg11.dtd"><svg t="1539869401292" class="icon" style="" viewBox="0 0 1024 1024" version="1.1" xmlns="http://www.w3.org/2000/svg" p-id="2202" xmlns:xlink="http://www.w3.org/1999/xlink" width="16" height="16"><defs><style type="text/css"></style></defs><path d="M931.122 770.504V426.986l14.004-6.998C954.75 415.616 960 405.115 960 395.492c0-11.378-5.25-19.255-14.004-25.374L524.247 120.664c-8.754-5.25-17.5-5.25-27.122 0L77.995 370.988C68.371 376.238 64 384.115 64 395.493c0 10.501 5.25 20.125 14.874 24.497l183.751 123.604c-2.625 4.373-3.503 8.745-3.503 13.127v266.815c0 8.754 3.503 25.99 9.624 31.242 5.25 5.25 13.126 6.259 24.505 12.379 11.37 6.129 37.623 18.247 76.994 27 40.257 8.746 86.626 13.118 140 13.118 178.501 0 237.127-43.743 243.255-49.87 6.998-4.373 10.501-23.366 10.501-31.243V553.216c0-3.503 0-7.877-2.625-11.379l113.748-74.854v303.52c-17.498 10.5-28 27.999-28 48.993 0 28.879 24.497 56 56.001 56 31.503 0 56-25.374 56-56-0.004-21.87-9.626-37.622-28.003-48.992zM708 829.507c-9.632 4.372-21.881 8.745-35.007 13.126-27.121 7.877-90.12 18.369-162.75 18.369-88.372 0-153.117-10.492-195.121-32.373V591.563l182.004 96.248c3.494 2.624 8.745 3.493 13.118 3.493l13.126-3.493L708 580.444v249.063zM510.243 626.69L149.746 401.27 511.12 186.393 872.496 401.27 510.243 626.69z" p-id="2203" fill="#1296db"></path></svg>