<?xml version="1.0" standalone="no"?><!DOCTYPE svg PUBLIC "-//W3C//DTD SVG 1.1//EN" "http://www.w3.org/Graphics/SVG/1.1/DTD/svg11.dtd"><svg t="1536574123899" class="icon" style="" viewBox="0 0 1024 1024" version="1.1" xmlns="http://www.w3.org/2000/svg" p-id="1086" xmlns:xlink="http://www.w3.org/1999/xlink" width="20" height="20"><defs><style type="text/css"></style></defs><path d="M54.87616 296.59136h918.9888c28.19072 0 51.05664 22.869333 51.05664 51.05664v34.034347c0 28.187307-22.86592 51.05664-51.05664 51.05664H54.87616c-28.204373 0-51.05664-22.869333-51.05664-51.05664v-34.034347c0-28.187307 22.848853-51.05664 51.05664-51.05664zM54.87616 568.8832h918.9888c28.19072 0 51.05664 22.872747 51.05664 51.05664v34.03776c0 28.19072-22.86592 51.05664-51.05664 51.05664H54.87616c-28.204373 0-51.05664-22.86592-51.05664-51.05664v-34.03776c0-28.183893 22.848853-51.05664 51.05664-51.05664z" p-id="1087" fill="#cdcdcd"></path></svg>