<?xml version="1.0" standalone="no"?><!DOCTYPE svg PUBLIC "-//W3C//DTD SVG 1.1//EN" "http://www.w3.org/Graphics/SVG/1.1/DTD/svg11.dtd"><svg t="1539869565069" class="icon" style="" viewBox="0 0 1024 1024" version="1.1" xmlns="http://www.w3.org/2000/svg" p-id="3931" xmlns:xlink="http://www.w3.org/1999/xlink" width="16" height="16"><defs><style type="text/css"></style></defs><path d="M664.517046 969.387937c-4.375714 0.128697-12.419306 0.373223-23.3972 0.669227-18.30078 0.50192-38.081581 1.00384-58.583087 1.467151-26.357241 0.592008-51.968038 1.093928-76.111683 1.467151-44.336278 0.669227-81.259581 0.849403-108.195961 0.450442-15.006125-0.218786-26.640376-0.643487-34.387964-1.222626-3.500571-0.270265-5.997302-0.553399-7.09123-0.772185a12.599482 12.599482 0 0 1 2.573949 0.913752c7.721848 3.371874 14.156721 9.330566 14.156722 22.213183V776.328866a25.160355 25.160355 0 0 0-8.609861-18.957137c-1.595849-1.389933-4.736067-4.221277-9.201869-8.352466-7.528802-6.962533-15.945616-15.018995-25.018788-24.040687a1064.019185 1064.019185 0 0 1-76.085943-83.885009C209.790282 585.895223 176.534857 532.009593 159.456703 482.615505c-8.300987-24.014948-12.560873-46.472656-12.560873-67.141469 0-201.630323 163.445784-365.088977 365.088977-365.088977s365.088977 163.445784 365.088977 365.088977c0 18.545305-3.757966 38.493413-11.119462 59.702755-17.876078 51.478987-55.983399 107.990045-108.26031 165.788078A1087.879696 1087.879696 0 0 1 673.101167 724.335089c-10.089881 9.008823-19.459057 16.936587-27.824393 23.834771-4.980592 4.092579-8.481163 6.898184-10.295797 8.288117a25.173225 25.173225 0 0 0-9.729529 19.883759v117.513657L650.463282 868.707908h-289.569303a25.17966 25.17966 0 1 0 0 50.359319h289.569303a25.173225 25.173225 0 0 0 25.211834-25.224703v-117.513658l-9.729529 19.883759c2.149248-1.673067 6.023041-4.774676 11.376857-9.189 8.828646-7.284277 18.648263-15.649612 29.214325-25.018787a1138.650847 1138.650847 0 0 0 88.518118-87.282623c56.42097-62.366793 97.990252-124.00001 118.491759-183.059278 9.111781-26.254283 13.912196-51.697773 13.912196-76.214641C927.433103 186.00645 741.426652 0 511.984807 0S96.536511 186.00645 96.536511 415.448296c0 26.653246 5.289466 54.567726 15.314998 83.589005 19.30462 55.880441 55.481478 114.412049 103.601462 173.741582a1113.233097 1113.233097 0 0 0 79.702342 87.887501c9.510743 9.459264 18.352259 17.914688 26.318632 25.289052 4.826155 4.465802 8.326726 7.60602 10.295797 9.304827l-8.60986-18.957137v218.258036c0 13.474625 7.065491 19.999587 15.971356 23.89912a36.254077 36.254077 0 0 0 7.902024 2.380903 113.987347 113.987347 0 0 0 13.024184 1.570109c9.008823 0.682097 21.479607 1.119668 37.425223 1.364193 27.541258 0.424702 64.915003 0.231655 109.714592-0.450441 24.285212-0.373223 50.024706-0.862273 76.497775-1.467151 20.591595-0.463311 40.436744-0.965231 58.814743-1.467151 11.029373-0.296004 19.124444-0.52766 23.551636-0.669227a25.186094 25.186094 0 0 0-1.51863-50.33358z m0 0" p-id="3932" fill="#1296db"></path><path d="M355.694602 546.552407l125.904732 125.891863a25.173225 25.173225 0 0 0 34.645359 0.913752l125.891863-113.253772a25.178373 25.178373 0 0 0-33.692997-37.425224l-125.891863 113.253772 34.645358 0.913752L391.253712 510.928947a25.180947 25.180947 0 0 0-35.610589 35.61059z m0 0" p-id="3933" fill="#1296db"></path><path d="M474.2121 667.232022h50.359319v214.01102h-50.359319z" p-id="3934" fill="#1296db"></path></svg>