<?xml version="1.0" standalone="no"?><!DOCTYPE svg PUBLIC "-//W3C//DTD SVG 1.1//EN" "http://www.w3.org/Graphics/SVG/1.1/DTD/svg11.dtd"><svg t="1535368988050" class="icon" style="" viewBox="0 0 1024 1024" version="1.1" xmlns="http://www.w3.org/2000/svg" p-id="1363" xmlns:xlink="http://www.w3.org/1999/xlink" width="30" height="30"><defs><style type="text/css"></style></defs><path d="M721.92 530.432c0-45.056-13.824-86.528-37.376-120.832-0.512-0.512-0.512-1.024-1.024-1.536-3.072-4.096-6.144-8.192-9.216-11.776-0.512-0.512-0.512-1.024-1.024-1.536-21.504-26.112-48.128-46.592-78.848-59.904-1.024-0.512-1.536-1.024-2.56-1.024-5.12-2.048-9.728-3.584-14.848-5.632-2.048-0.512-3.584-1.536-5.632-2.048-4.608-1.536-8.704-2.56-13.312-3.584-2.56-0.512-5.12-1.024-7.168-1.536-1.024 0-2.56-0.512-3.584-1.024-3.072-0.512-6.656-1.024-10.24-1.536-2.048-0.512-4.608-0.512-6.656-1.024-5.632-0.512-11.264-1.024-16.896-1.024h-3.072-0.512c-43.008 0-84.48 13.312-120.32 38.4-11.264 8.192-14.336 24.064-6.144 35.84 8.192 11.776 23.552 14.336 35.328 6.144 27.648-19.456 59.904-29.696 93.184-29.184 4.608 0 9.728 0.512 14.336 0.512 1.536 0 2.56 0.512 4.096 0.512 3.584 0.512 7.68 1.024 11.264 2.048 1.536 0.512 3.072 1.024 5.12 1.024 3.584 1.024 7.168 1.536 10.752 2.56 1.024 0.512 2.048 1.024 3.584 1.024 4.096 1.536 8.192 2.56 11.776 4.608 0.512 0 1.024 0.512 1.024 0.512 23.552 10.24 44.544 26.112 60.416 46.08 0 0 0 0.512 0.512 0.512 22.528 28.16 36.352 64 36.352 102.912h-41.984l67.584 102.4 67.584-102.4-42.496 0.512z m-118.784 133.12c-27.648 19.968-60.416 29.696-93.696 29.184-4.608 0-8.704-0.512-13.312-0.512-2.048 0-3.584-0.512-5.12-0.512-3.584-0.512-6.656-1.024-10.24-1.536l-6.144-1.536c-3.072-1.024-6.656-1.536-9.728-2.56l-4.608-1.536c-3.584-1.024-7.168-2.56-10.752-4.096-1.024-0.512-1.536-0.512-2.56-1.024-4.096-2.048-8.192-3.584-12.288-6.144l-0.512-0.512c-13.312-7.68-25.6-16.896-36.352-27.648l-0.512-0.512c-3.072-3.584-6.656-6.656-9.728-10.752-0.512-1.024-1.536-1.536-2.048-2.56-22.016-27.648-35.328-62.976-35.328-101.376h41.984l-67.584-102.4-67.584 102.4h41.984c0 45.056 13.824 86.528 37.376 121.344 0.512 0.512 0.512 1.024 1.024 1.536 2.56 3.584 5.12 6.656 7.68 10.24 1.024 1.536 2.048 2.56 3.072 3.584 4.096 4.608 7.68 9.216 12.288 13.312 0.512 0.512 1.024 1.024 1.024 1.536 14.336 14.336 30.208 26.624 47.616 35.84 0.512 0.512 1.024 0.512 1.536 1.024l15.36 7.68 4.096 2.048c4.608 2.048 9.216 3.584 13.824 5.12 2.048 0.512 4.608 1.536 6.656 2.048l12.288 3.072c2.56 0.512 5.632 1.536 8.192 2.048 1.024 0.512 2.048 0.512 3.584 1.024 4.096 0.512 7.68 1.024 11.776 1.536l4.096 0.512c7.168 0.512 14.336 1.024 20.992 1.024 43.008 0 84.48-13.312 120.832-38.912 11.264-8.192 14.336-24.064 6.144-35.84-8.192-11.776-24.064-14.336-35.328-6.144z m271.36-421.888H762.88c-26.624 0-82.944-119.808-112.64-119.808H370.688c-29.696 0-86.016 119.808-112.64 119.808H147.456c-46.08 0-83.968 40.448-83.968 89.6v478.72c0 49.664 37.376 89.6 83.968 89.6h727.04c46.08 0 83.968-39.936 83.968-89.6V331.264c0-49.152-37.888-89.6-83.968-89.6z m28.16 538.624c0 33.28-25.088 59.904-55.808 59.904H175.616c-30.72 0-55.808-26.624-55.808-59.904V361.472c0-32.768 25.088-59.904 55.808-59.904H286.72c25.6 0 81.92-119.808 111.616-119.808h223.232c29.696 0 85.504 119.808 111.616 119.808h113.664c30.72 0 55.808 26.624 55.808 59.904v418.816z" p-id="1364" fill="#d81e06"></path></svg>