<?xml version="1.0" standalone="no"?><!DOCTYPE svg PUBLIC "-//W3C//DTD SVG 1.1//EN" "http://www.w3.org/Graphics/SVG/1.1/DTD/svg11.dtd"><svg t="1535614116060" class="icon" style="" viewBox="0 0 1024 1024" version="1.1" xmlns="http://www.w3.org/2000/svg" p-id="897" xmlns:xlink="http://www.w3.org/1999/xlink" width="48" height="48"><defs><style type="text/css"></style></defs><path d="M890.336 330.912c-12.576-12.416-32.8-12.352-45.248 0.192l-327.84 330.848-332.416-329.44c-12.576-12.448-32.8-12.352-45.28 0.192-12.448 12.576-12.352 32.832 0.192 45.28l353.312 350.112c0.544 0.544 1.248 0.672 1.792 1.184 0.128 0.128 0.16 0.288 0.288 0.416a31.972 31.972 0 0 0 22.528 9.28c8.224 0 16.48-3.168 22.72-9.472l350.112-353.312c12.48-12.576 12.384-32.832-0.16-45.28z" fill="" p-id="898"></path></svg>